<svg width="694" height="694" viewBox="0 0 694 694" fill="none" xmlns="http://www.w3.org/2000/svg">
<path d="M288.828 676.911C245.503 669.271 204.108 653.173 167.005 629.536C129.901 605.899 97.8173 575.185 72.5841 539.148C47.3508 503.111 29.4626 462.457 19.9408 419.507C10.419 376.557 9.45013 332.152 17.0894 288.828C24.7287 245.503 40.8266 204.108 64.4639 167.005C88.1012 129.901 118.815 97.8173 154.852 72.584C190.889 47.3508 231.543 29.4626 274.493 19.9408C317.443 10.419 361.848 9.45013 405.172 17.0894C448.497 24.7287 489.892 40.8266 526.995 64.4639C564.099 88.1012 596.183 118.815 621.416 154.852C646.649 190.889 664.537 231.543 674.059 274.493C683.581 317.443 684.55 361.848 676.911 405.172C669.271 448.497 653.173 489.892 629.536 526.995C605.899 564.099 575.185 596.183 539.148 621.416C503.111 646.649 462.457 664.537 419.507 674.059C376.557 683.581 332.152 684.55 288.828 676.911L288.828 676.911Z" stroke="#608BFF" stroke-width="24"/>
</svg>
